<?xml version="1.0" encoding="UTF-8"?>
<svg xmlns="http://www.w3.org/2000/svg" id="Layer_1" data-name="Layer 1" viewBox="0 0 24 24">
  <path d="M3.394,11.33c1.133-.544,1.499-.826,2.299-1.779,.178-.211,.15-.527-.062-.704-.211-.177-.526-.151-.704,.062-.486,.578-.759,.853-1.208,1.124,.419-4.85,2.888-6.845,8.366-6.845,5.104,0,7.569,1.75,8.243,5.849,.045,.273,.307,.46,.574,.412,.272-.044,.457-.302,.412-.574-.975-5.927-5.444-6.687-9.229-6.687-4.039,0-8.692,.892-9.35,7.641-.301-.317-.492-.639-.788-1.231-.124-.248-.423-.347-.671-.224-.247,.124-.347,.424-.224,.671,.551,1.101,.844,1.448,1.814,2.226,.163,.131,.364,.137,.526,.059Z"/>
  <path d="M22.947,14.955c-.551-1.101-.839-1.455-1.814-2.226-.151-.119-.355-.142-.526-.059-1.134,.543-1.499,.826-2.299,1.779-.178,.211-.15,.527,.062,.704,.212,.178,.527,.151,.704-.062,.486-.578,.759-.853,1.208-1.124-.419,4.85-2.888,6.845-8.366,6.845-5.104,0-7.569-1.75-8.243-5.849-.045-.273-.306-.459-.574-.412-.272,.044-.457,.302-.412,.574,.975,5.927,5.444,6.687,9.229,6.687,4.039,0,8.692-.892,9.35-7.641,.301,.317,.483,.643,.788,1.231,.183,.353,.539,.293,.671,.224,.244-.129,.347-.424,.224-.671Z"/>
</svg>
